# xmcd
#
# Track frame offsets: 
#        150
#        16754
#        32372
#        45888
#        63432
#        76983
#        94633
#        107761
#        122592
#        133818
#        146770
#        158748
#        173132
#        181562
#        195854
#        213715
#
# Disc length: 2876 seconds
#
# Revision: 0
# Processed by: cddbd v1.5.2PL0 Copyright (c) Steve Scherf et al.
# Submitted via: ExactAudioCopy v1.0b1
#
DISCID=c20b3a10
DTITLE=Johnny Horton - Johnny Horton: Live at the Louisiana Hayride
DYEAR=2006
DGENRE=Country
TTITLE0=Honky Tonk Man
TTITLE1=Rock Island Line
TTITLE2=One Woman Man
TTITLE3=John Henry
TTITLE4=Honky Tonk Hardwood Floor
TTITLE5=My Bucket's got A Hole In It
TTITLE6=Jambalaya
TTITLE7=All For The Love Of A Girl
TTITLE8=Johnny Reb
TTITLE9=Same Old Tail The Crow Told Me
TTITLE10=Battle of New Orleans
TTITLE11=When It's Springtime in Alaska
TTITLE12=Sal's Got a Sugar Lip
TTITLE13=Sink the Bismark
TTITLE14=Whispering Pines
TTITLE15=Johnny Horton For Wray Ford
EXTD=
EXTT0=
EXTT1=
EXTT2=
EXTT3=
EXTT4=
EXTT5=
EXTT6=
EXTT7=
EXTT8=
EXTT9=
EXTT10=
EXTT11=
EXTT12=
EXTT13=
EXTT14=
EXTT15=
PLAYORDER=
